<svg width="16" height="16" viewBox="0 0 16 16" fill="none" xmlns="http://www.w3.org/2000/svg">
<rect x="1.5" y="1.5" width="13" height="13" rx="1.5" fill="#ACF7FF" stroke="#898BA1"/>
<mask id="mask0_19_96" style="mask-type:alpha" maskUnits="userSpaceOnUse" x="2" y="2" width="12" height="12">
<rect x="2" y="2" width="12" height="12" rx="1" fill="#ACF7FF"/>
</mask>
<g mask="url(#mask0_19_96)">
<path d="M2.85063 3.90424L-0.482667 12.6436C-0.732335 13.2982 -0.248912 14 0.451678 14H15.2762C15.6759 14 16 13.6759 16 13.2762C16 13.188 15.9839 13.1006 15.9525 13.0183L13.9154 7.67723C13.6621 7.01315 12.8163 6.81786 12.2975 7.30365L9.70468 9.73151C9.24189 10.1649 8.49783 10.0637 8.16757 9.52249L4.63858 3.73969C4.20571 3.03037 3.14676 3.12783 2.85063 3.90424Z" fill="#ACFF86"/>
</g>
<path d="M11 5.11806C11 5.94648 10.3284 6.61806 9.5 6.61806C8.67157 6.61806 8 5.94648 8 5.11806C8 4.28963 8.67157 3.61806 9.5 3.61806C10.3284 3.61806 11 4.28963 11 5.11806Z" fill="#FFCD7D"/>
</svg>
